<?xml version="1.0" encoding="utf-8"?>
<!-- Generator: Adobe Illustrator 17.0.0, SVG Export Plug-In . SVG Version: 6.00 Build 0)  -->
<!DOCTYPE svg PUBLIC "-//W3C//DTD SVG 1.1//EN" "http://www.w3.org/Graphics/SVG/1.1/DTD/svg11.dtd">
<svg version="1.1" id="Layer_1" xmlns="http://www.w3.org/2000/svg" xmlns:xlink="http://www.w3.org/1999/xlink" x="0px" y="0px"
	 width="230.544px" height="188.918px" viewBox="0 0 230.544 188.918" enable-background="new 0 0 230.544 188.918"
	 xml:space="preserve">
<g>
	<path fill="#BFD730" d="M228.864,77.469c-1.605,10.037-6.673,24.677-15.201,39.113c-22.846,38.674-53.757,45.437-76.197,51.654
		c0.013-0.634,0.035-1.198,0.052-1.64c0.015-0.412,0.03-0.791,0.039-1.132c0.141-4.887,1.778-11.127,3.674-18.351
		c6.027-22.968,14.281-54.424-9.652-94.939c-2.786-4.717-5.884-9.338-9.158-13.703c4.753-5.607,9.456-10.184,13.557-13.416
		c12.506-10.335,37.528-24.512,58.131-24.512c5.821,0,11.292,1.133,16.025,3.804C231.621,16.471,232.59,57.266,228.864,77.469z
		 M105.432,183.593c-1.131-0.598-2.392-1.156-3.764-1.69l-0.433,0.733c-1.551,2.625-0.983,4.695,0.36,5.453
		c0.36,0.203,0.775,0.312,1.221,0.312c1.216,0,2.656-0.812,3.791-2.734l0.661-1.119c-0.303-0.159-0.578-0.301-0.815-0.423
		C106.082,183.932,105.74,183.755,105.432,183.593z M127.265,165.183c0.173-6.015,1.943-12.759,3.992-20.568
		c2.889-11.007,6.163-23.484,6.03-37.995c-0.154-16.85-4.938-33.013-14.626-49.413c-4.052-6.86-8.677-13.357-13.747-19.31
		c-4.52-5.308-9.167-9.893-13.439-13.261c-7.11-5.875-16.639-11.781-26.144-16.203C61.063,4.586,48.74,0,36.99,0
		c-6.26,0-11.745,1.304-16.304,3.876c-5.135,2.898-9.419,7.582-12.732,13.923C5.078,23.305,2.939,30.03,1.598,37.788
		C-0.986,52.732-0.05,68.13,1.688,77.559c0.848,5.299,2.588,11.525,5.031,18.005c2.74,7.267,6.184,14.431,10.237,21.29
		c9.688,16.4,21.618,28.53,36.471,37.086c12.792,7.368,25.484,10.834,36.682,13.893c7.945,2.17,14.806,4.043,20.222,6.905
		c0.28,0.148,0.593,0.308,0.933,0.483c3.228,1.666,9.236,4.764,11.974,9.398l0.775,1.306c1.128,1.91,2.686,2.993,4.273,2.993h0
		c0.534,0,1.053-0.12,1.499-0.372c1.526-0.861,2.353-3.154,0.564-6.183l-0.775-1.312c-2.737-4.634-2.481-11.27-2.344-14.835
		C127.243,165.84,127.256,165.494,127.265,165.183z"/>
</g>
</svg>
